<?xml version="1.0" encoding="utf-8"?>
<!-- Generator: Adobe Illustrator 25.0.0, SVG Export Plug-In . SVG Version: 6.00 Build 0)  -->
<svg version="1.1" id="Слой_1" xmlns="http://www.w3.org/2000/svg" xmlns:xlink="http://www.w3.org/1999/xlink" x="0px" y="0px"
	 viewBox="0 0 501 500" style="enable-background:new 0 0 501 500;" xml:space="preserve">
<style type="text/css">
	.st0{fill:none;stroke:#6D0000;stroke-width:6;stroke-miterlimit:10;}
	.st1{fill:none;}
	.st2{fill:#FFFFFF;}
	.st3{fill:#6D0000;}
	.st4{fill:#6D0000;stroke:#6D0000;stroke-width:3;stroke-miterlimit:10;}
</style>
<image style="display:none;overflow:visible;" width="533" height="508" xlink:href="14F739E4.jpg"  transform="matrix(0.5866 0 0 0.5866 114 99)">
</image>
<rect x="142.1" y="78" class="st0" width="221.1" height="221.1"/>
<rect x="243.9" y="94.5" class="st1" width="2.4" height="0"/>
<line class="st2" x1="342.8" y1="409.1" x2="342.8" y2="418.3"/>
<g>
	<path class="st3" d="M212.5,336.8c2,1.5,3.8,3.5,5.5,5.9c1.7,2.4,3.1,5.1,4.3,8c1.2,2.9,2.2,6,2.8,9.4c0.7,3.3,1,6.7,1,10.2
		c0,3.5-0.3,6.9-1,10.2c-0.7,3.3-1.6,6.4-2.8,9.4c-1.2,2.9-2.7,5.6-4.3,8c-1.7,2.4-3.5,4.4-5.5,5.9c-1.7,1.3-3.4,2.4-5.1,3.2
		c-1.7,0.8-3.6,1.4-5.6,1.9c-2,0.4-4.2,0.7-6.6,0.9c-2.4,0.1-5.1,0.2-8,0.2h-4.5c-2.9,0-5.5-0.1-7.9-0.2c-2.4-0.1-4.5-0.4-6.5-0.9
		c-2-0.4-3.9-1.1-5.6-1.9c-1.7-0.8-3.4-1.9-5-3.2c-2-1.6-3.8-3.5-5.5-5.9c-1.7-2.4-3.1-5.1-4.3-8c-1.2-2.9-2.2-6-2.8-9.4
		c-0.7-3.3-1-6.7-1-10.2c0-3.5,0.3-6.9,1-10.2c0.7-3.3,1.6-6.4,2.8-9.4c1.2-2.9,2.7-5.6,4.3-8c1.7-2.4,3.5-4.4,5.5-5.9
		c1.6-1.3,3.3-2.4,5-3.2c1.7-0.8,3.6-1.4,5.6-1.9c2-0.4,4.2-0.7,6.5-0.9c2.4-0.1,5-0.2,7.9-0.2h4.9c2.9,0,5.5,0.1,7.9,0.2
		c2.4,0.1,4.5,0.4,6.5,0.9c2,0.4,3.8,1.1,5.5,1.9C209.1,334.4,210.8,335.5,212.5,336.8z M198.7,367.2c0-2.6-0.1-5.6-0.2-9
		s-0.5-6.7-1-10c-0.5-3.3-1.3-6.3-2.2-9.1c-1-2.8-2.3-4.8-3.9-6c-0.8-0.6-1.5-1-1.9-1.2c-0.5-0.2-1.1-0.3-1.9-0.3h-4.9
		c-0.8,0-1.5,0.1-1.9,0.3c-0.5,0.2-1.1,0.6-1.9,1.2c-1.6,1.3-2.9,3.3-3.9,6c-1,2.8-1.8,5.8-2.3,9.1c-0.5,3.3-0.8,6.6-1,10
		s-0.2,6.4-0.2,9v6.2c0,2.6,0.1,5.6,0.2,9c0.1,3.4,0.5,6.7,1,10c0.5,3.3,1.3,6.3,2.3,9.1c1,2.8,2.3,4.8,3.9,6c0.8,0.6,1.5,1,1.9,1.2
		c0.5,0.2,1.1,0.3,1.9,0.3h4.9c0.8,0,1.5-0.1,1.9-0.3c0.5-0.2,1.1-0.6,1.9-1.2c1.6-1.3,2.9-3.3,3.9-6c1-2.8,1.7-5.8,2.2-9.1
		c0.5-3.3,0.8-6.6,1-10c0.1-3.4,0.2-6.4,0.2-9v-3.1V367.2z"/>
	<path class="st3" d="M272.8,331.5c-7.9,0-20.5,0-33,0c0,0.9,0,1.6,0,1.6s0,38.1,0,75.9c8.8,0,17.7,0,24.3,0c0-11.5,0-23.4,0-23.4
		c0-5,0-8.9,0-8.9h6.1c5.6,0,10.7-0.3,15.4-0.9c4.7-0.6,8.6-1.7,11.9-3.4c3.3-1.7,5.8-4.1,7.6-7.3c1.8-3.2,2.7-7.4,2.7-12.6
		c0-2.6-0.4-4.9-1.2-6.9c-0.8-2-1.8-3.7-3-5.2c-1.2-1.5-2.6-2.7-4.3-3.7c-1.6-1-3.3-1.8-4.9-2.5c-3.9-1.5-8.3-2.4-13.2-2.7
		C281.2,331.5,278,331.5,272.8,331.5z M282.6,356.9c0,2.4-0.3,4.4-0.8,6.2c-0.5,1.8-1.2,3.4-2.1,4.7c-0.9,1.3-1.8,2.5-2.9,3.4
		c-1.1,0.9-2.2,1.7-3.3,2.3c-2.7,1.3-5.6,2.1-9,2.3h-0.5v-43.4h5.2c2.5,0.2,4.7,1.1,6.6,2.5c0.8,0.7,1.6,1.5,2.4,2.4
		c0.8,1,1.5,2.1,2.2,3.5c0.6,1.4,1.1,3,1.5,4.9c0.4,1.9,0.5,4.1,0.5,6.6V356.9z"/>
	<path class="st3" d="M319.7,402.7c0,2.1,0,4.2,0,6.3c-0.3,0-0.6,0-0.9,0c0-3.6,0-6.3,0-6.3c0-1.3,0-17.8,0.1-34.7
		c0-15.8,0.1-32,0.1-36.5c1.7,0,4.3,0,4.3,0c2,0.1,4,0.3,6.1,0.8c1.8,0.4,3.7,1,5.9,1.9c2.1,0.9,4.2,2.2,6.3,3.8
		c2.1,1.8,4,4.1,5.8,6.9c1.8,2.7,3.4,5.6,5,8.7c1.5,3.1,3,6.2,4.3,9.4c1.3,3.2,2.5,6.1,3.5,8.9c1.1,2.8,2,5.2,2.9,7.3
		c0.9,2.1,1.7,3.6,2.3,4.4l18.5-52.1c0,0,12.3,0,24.7,0c0,35.7,0,71.9,0,76.2c0,0,0,0.6,0,1.3c-6.7,0-15.8,0-24.8,0
		c0-13,0-26.4,0-26.4c0-6.1,0-12.6,0-18.8c0-15.6,0-29.4,0-29.4L357.2,409h-1c-1.5,0-3.1-1.2-4.9-3.7c-1.8-2.5-3.7-5.7-5.7-9.6
		c-2-3.9-4.1-8.4-6.3-13.3c-2.2-4.9-4.4-9.9-6.6-14.8c-0.2-0.4-0.4-0.9-0.6-1.3c-2-4.4-4-8.7-6-12.7c-2.2-4.4-4.4-8.1-6.4-11.1
		C319.7,342.5,319.7,372.6,319.7,402.7z"/>
	<path class="st3" d="M484,371.1c0.7,1.6,1.4,3.3,2.1,4.9c1.5,3.5,2.9,6.8,4.2,10c0.1,0.3,0.3,0.6,0.4,0.9c3,7.2,6.2,14.6,9.4,22.1
		h-9c-4.1,0-7.5-0.6-10.3-1.8c-2.8-1.2-5.3-2.9-7.4-5.1c-2.1-2.2-3.9-4.9-5.5-8c-1.6-3.1-3.1-6.6-4.7-10.5c0,0-3,0-6.9,0
		c-7.2,0-17.5,0-17.5,0s-5.4,19.1-5.7,20.2c0,0-0.7,2.6-1.5,5.3c-0.1,0-0.2,0-0.2,0c-0.5,0-1,0-1.5,0c1.1-3.5,1.8-6.1,1.8-6.1
		c0.8-2.6,16-52.9,16.9-55.7c0,0,2.4-7.9,4.8-15.9c1.3,0.1,2.6,0.2,2.6,0.2c2.2,0.1,4.2,0.6,5.9,1.5c2.1,1,3.9,2.3,5.5,3.8
		c1.6,1.5,2.9,3.2,4,5c1.1,1.8,2,3.6,2.7,5.2c1.1,2.7,2.3,5.6,3.6,8.7c1.3,3.2,2.7,6.5,4.1,9.9C482.4,367.5,483.2,369.3,484,371.1z
		 M439,382.7h23.7L449.2,349L439,382.7z"/>
</g>
<g>
	<rect x="50.7" y="330.3" class="st3" width="28.9" height="78"/>
	<path class="st3" d="M106,342.2H24.7c-12.7,0-23,12-23,26.7s10.3,26.7,23,26.7H106c12.7,0,23-12,23-26.7S118.8,342.2,106,342.2z
		 M47.8,395L47.8,395c-6.1,0-11.1-5-11.1-11.1v-30c0-6.1,5-11.1,11.1-11.1h0c0.8,0,1.4,0.6,1.4,1.4v49.4
		C49.2,394.3,48.6,395,47.8,395z M82.7,395h-0.9c-0.8,0-1.4-0.6-1.4-1.4v-49.4c0-0.8,0.6-1.4,1.4-1.4h0.9c6.1,0,11.1,5,11.1,11.1v30
		C93.8,390,88.9,395,82.7,395z"/>
</g>
<line class="st4" x1="499.2" y1="422" x2="5" y2="422"/>
<g>
	<rect x="226.4" y="118.4" class="st3" width="51.3" height="138.7"/>
	<path class="st3" d="M324.8,139.5H180.2c-22.6,0-40.9,21.3-40.9,47.5s18.3,47.5,40.9,47.5h144.6c22.6,0,40.9-21.3,40.9-47.5
		S347.4,139.5,324.8,139.5z M223.9,229.5L223.9,229.5c-10,0-18.1-8.1-18.1-18.1v-48.9c0-10,8.1-18.1,18.1-18.1h0
		c1.2,0,2.3,1,2.3,2.3v80.6C226.2,228.5,225.2,229.5,223.9,229.5z M280.9,229.5h-1.4c-1.2,0-2.3-1-2.3-2.3v-80.6
		c0-1.2,1-2.3,2.3-2.3h1.4c10,0,18.1,8.1,18.1,18.1v48.9C299,221.4,290.9,229.5,280.9,229.5z"/>
</g>
</svg>
