<?xml version="1.0" standalone="no"?>
<!DOCTYPE svg PUBLIC "-//W3C//DTD SVG 20010904//EN"
 "http://www.w3.org/TR/2001/REC-SVG-20010904/DTD/svg10.dtd">
<svg version="1.0" xmlns="http://www.w3.org/2000/svg"
 width="1200.000000pt" height="1200.000000pt" viewBox="0 0 1200.000000 1200.000000"
 preserveAspectRatio="xMidYMid meet">

<g transform="translate(0.000000,1200.000000) scale(0.100000,-0.100000)"
fill="#000000" stroke="none">
<path d="M2100 10975 c-187 -31 -382 -110 -538 -217 -99 -68 -252 -221 -320
-320 -81 -119 -158 -288 -193 -425 -41 -157 -50 -367 -25 -524 20 -118 70
-277 117 -371 80 -160 222 -335 365 -448 168 -135 399 -234 612 -262 l82 -12
397 -615 396 -616 -22 -110 c-12 -60 -51 -247 -86 -415 -35 -168 -130 -622
-210 -1010 -80 -388 -227 -1092 -325 -1565 -98 -473 -212 -1018 -252 -1211
l-73 -352 -205 -4 c-188 -5 -212 -7 -285 -31 -224 -75 -391 -231 -478 -447
-59 -149 -63 -348 -9 -503 42 -122 84 -189 182 -287 97 -97 163 -139 287 -184
l88 -31 4395 0 4395 0 88 31 c124 45 190 87 287 184 143 143 209 288 218 481
10 228 -60 412 -218 570 -86 86 -181 144 -305 186 l-80 27 -457 4 -458 3 0
222 1 222 63 48 c87 65 215 183 315 292 315 341 532 777 684 1380 71 281 130
626 153 893 l7 82 61 0 c112 0 177 33 216 111 19 36 20 61 20 454 0 395 -1
418 -20 455 -24 47 -71 84 -125 99 -28 8 -393 11 -1203 11 l-1163 0 3 73 3 72
156 5 c152 5 157 6 192 33 75 57 77 69 77 401 l0 294 223 4 c241 3 254 6 308
65 49 52 49 55 49 371 l0 299 183 6 c112 3 212 11 262 22 264 56 468 162 654
341 353 338 484 824 351 1304 -27 98 -115 280 -182 378 -68 99 -221 252 -320
320 -115 78 -288 158 -425 195 l-118 32 -3860 2 c-3082 1 -3875 -2 -3935 -12z
m7821 -396 c176 -49 315 -133 440 -267 82 -88 124 -153 174 -269 51 -116 68
-207 68 -358 0 -139 -16 -220 -67 -345 -112 -280 -383 -495 -690 -549 -83 -15
-7609 -15 -7692 0 -333 58 -613 300 -714 616 -110 343 -21 697 236 944 143
136 302 215 489 245 63 9 875 12 3870 11 l3790 -2 96 -26z m-3571 -2481 c0
-328 4 -350 71 -401 54 -40 100 -47 312 -47 l197 0 0 -284 c0 -188 4 -294 12
-317 15 -46 43 -80 86 -106 34 -21 49 -23 185 -23 l147 0 0 -75 0 -75 -1182
-2 -1183 -3 -48 -28 c-38 -22 -54 -41 -73 -80 l-24 -52 0 -394 c0 -437 2 -453
61 -512 41 -41 97 -59 183 -59 l55 0 5 -42 c3 -24 10 -90 16 -148 50 -487 182
-1022 347 -1410 178 -418 442 -770 772 -1031 l81 -64 0 -222 0 -223 -142 0
-143 0 -82 98 c-628 752 -1045 1670 -1207 2657 -52 318 -61 450 -61 885 1 426
12 578 64 879 l19 108 363 564 c199 310 382 594 406 632 l43 67 360 0 360 0 0
-292z m2760 117 l0 -175 -1190 0 -1190 0 0 175 0 175 1190 0 1190 0 0 -175z
m-580 -740 l0 -175 -605 0 -605 0 0 175 0 175 605 0 605 0 0 -175z m-4125
-487 c-26 -118 -55 -468 -61 -743 -19 -775 114 -1531 399 -2265 182 -470 460
-971 757 -1365 44 -59 80 -109 80 -111 0 -2 -711 -4 -1581 -4 l-1581 0 6 27
c141 677 765 3682 834 4016 l97 467 528 0 527 0 -5 -22z m6205 -783 l0 -175
-2685 0 -2685 0 0 175 0 175 2685 0 2685 0 0 -175z m-306 -597 c-2 -18 -11
-94 -19 -168 -66 -583 -231 -1146 -447 -1522 -124 -217 -333 -459 -528 -612
l-84 -66 -1306 0 -1305 0 -87 71 c-362 291 -593 647 -766 1179 -74 226 -129
457 -172 725 -20 124 -50 363 -50 403 l0 22 2384 0 2385 0 -5 -32z m-5 -3499
c211 -34 348 -237 297 -439 -21 -85 -77 -165 -146 -212 -109 -74 300 -68
-4450 -68 -4750 0 -4341 -6 -4450 68 -105 71 -170 210 -156 332 19 158 145
293 298 319 78 13 8527 13 8607 0z"/>
<path d="M4274 9880 l-540 -5 -37 -25 c-94 -64 -111 -199 -36 -284 62 -71 -53
-67 1630 -64 l1515 3 42 28 c77 50 109 165 69 243 -23 44 -81 92 -119 98 -47
8 -1876 12 -2524 6z"/>
<path d="M7854 9860 c-45 -22 -74 -57 -92 -109 -31 -90 13 -192 103 -232 58
-27 282 -27 340 0 108 49 147 182 81 281 -45 68 -83 80 -248 80 -123 0 -149
-3 -184 -20z"/>
<path d="M9155 9866 c-43 -19 -92 -79 -105 -127 -23 -85 25 -185 107 -221 39
-17 63 -19 187 -16 131 3 145 5 178 27 112 77 118 236 11 318 -36 28 -39 28
-192 30 -114 2 -164 -1 -186 -11z"/>
</g>
</svg>
