<svg width="512" height="488" viewBox="0 0 512 488" fill="none" xmlns="http://www.w3.org/2000/svg">
<path d="M390.86 262.04H356.25C351.47 262.04 347.6 265.91 347.6 270.69H307.92L252.42 215.19V132.24C252.42 129.94 251.51 127.74 249.88 126.12L146.05 22.3L132.33 8.58999C122.19 -1.55001 105.76 -1.55001 95.62 8.58999L7.6 96.6C-2.54 106.74 -2.54 123.17 7.6 133.31L21.32 147.02L125.15 250.85C126.77 252.47 128.97 253.39 131.27 253.39H214.22L231.53 270.7H165.89C161.11 270.7 157.24 274.57 157.24 279.35V461.06C157.24 475.4 168.86 487.02 183.2 487.02H200.51C214.85 487.02 226.47 475.4 226.47 461.06V339.92H261.08V374.53C261.11 398.41 280.46 417.77 304.34 417.79C309.12 417.79 312.99 413.92 312.99 409.14V339.92H347.6C347.6 344.7 351.47 348.57 356.25 348.57H390.86C395.64 348.57 399.51 344.7 399.51 339.92V270.7C399.51 265.92 395.64 262.04 390.86 262.04ZM19.84 121.07C16.46 117.69 16.46 112.21 19.83 108.83C19.83 108.83 19.83 108.83 19.84 108.82L107.85 20.81C111.23 17.43 116.71 17.43 120.09 20.8C120.09 20.8 120.09 20.8 120.1 20.81L127.7 28.41L27.45 128.67L19.84 121.07ZM134.86 236.09L39.68 140.91L139.93 40.66L235.11 135.84V215.2L214.22 236.09H134.86V236.09ZM347.6 322.61H304.34C299.56 322.61 295.69 326.48 295.69 331.26V399C285.33 395.32 278.4 385.52 278.38 374.52V331.26C278.38 326.48 274.51 322.61 269.73 322.61H217.81C213.03 322.61 209.16 326.48 209.16 331.26V461.05C209.16 465.83 205.29 469.7 200.51 469.7H183.2C178.42 469.7 174.55 465.83 174.55 461.05V288H252.42C257.2 288 261.07 284.12 261.07 279.35C261.07 277.06 260.16 274.86 258.54 273.23L230.05 244.74L243.77 231.02L298.22 285.47C299.84 287.09 302.04 288.01 304.34 288.01H347.6V322.61ZM382.21 331.27H364.9V279.35H382.21V331.27Z" fill="black"/>
<path d="M440.03 264.58C436.68 261.34 431.36 261.34 428.01 264.58L410.7 281.89C407.26 285.21 407.17 290.69 410.49 294.13C413.81 297.57 419.29 297.66 422.73 294.34C422.8 294.27 422.87 294.2 422.94 294.13L440.25 276.82C443.56 273.38 443.47 267.9 440.03 264.58Z" fill="black"/>
<path d="M440.24 333.8L422.93 316.49C419.49 313.17 414.02 313.26 410.69 316.7C407.45 320.05 407.45 325.37 410.69 328.72L428 346.03C431.44 349.35 436.91 349.26 440.24 345.82C443.48 342.47 443.48 337.16 440.24 333.8Z" fill="black"/>
<path d="M474.85 368.41L457.54 351.1C454.1 347.78 448.63 347.87 445.3 351.31C442.06 354.66 442.06 359.98 445.3 363.33L462.61 380.64C466.05 383.96 471.52 383.87 474.85 380.43C478.09 377.08 478.09 371.77 474.85 368.41Z" fill="black"/>
<path d="M509.46 403.02L492.15 385.71C488.71 382.39 483.24 382.48 479.91 385.92C476.67 389.27 476.67 394.59 479.91 397.94L497.22 415.25C500.66 418.57 506.13 418.48 509.46 415.04C512.7 411.69 512.7 406.38 509.46 403.02Z" fill="black"/>
<path d="M474.85 229.97C471.47 226.59 465.99 226.59 462.61 229.97L445.3 247.28C441.86 250.6 441.77 256.08 445.09 259.51C448.41 262.95 453.89 263.04 457.33 259.72C457.4 259.65 457.47 259.58 457.54 259.51L474.85 242.2C478.23 238.83 478.23 233.35 474.85 229.97Z" fill="black"/>
<path d="M509.25 195.36C505.9 192.12 500.58 192.12 497.23 195.36L479.92 212.67C476.48 215.99 476.39 221.47 479.71 224.91C483.03 228.35 488.51 228.44 491.95 225.12C492.02 225.05 492.09 224.98 492.16 224.91L509.47 207.6C512.78 204.16 512.69 198.68 509.25 195.36Z" fill="black"/>
<path d="M460.08 296.66H442.77C437.99 296.66 434.12 300.53 434.12 305.31C434.12 310.09 437.99 313.96 442.77 313.96H460.08C464.86 313.96 468.73 310.09 468.73 305.31C468.73 300.53 464.86 296.66 460.08 296.66Z" fill="black"/>
<path d="M503.35 296.66H486.04C481.26 296.66 477.39 300.53 477.39 305.31C477.39 310.09 481.26 313.96 486.04 313.96H503.35C508.13 313.96 512 310.09 512 305.31C512 300.53 508.13 296.66 503.35 296.66Z" fill="black"/>
</svg>
