<svg id="Layer_1_copy" height="512" viewBox="0 0 512 512" width="512" xmlns="http://www.w3.org/2000/svg" data-name="Layer 1 copy"><path d="m24 304c0 1.439.3 33.154 24 45.288v22.724a47.684 47.684 0 0 0 14.059 33.941 48.522 48.522 0 0 0 33.52 14.057c53.093 5.31 107.066 8 160.421 8s107.325-2.692 160.417-8a48.055 48.055 0 0 0 47.583-48v-21.218c7.347-2.295 15.885-8.569 20.663-24.493a86.829 86.829 0 0 0 3.337-22.299v-33.573c5.645-9.011 24-43.749 24-114.415 0-27.033-42.764-43.743-78.638-53-44.638-11.52-102.991-18.172-165.412-18.926-1.28-.03-2.562-.057-3.852-.073q-3.885-.047-7.754 0h-.344c-66.9 0-129.886 6.748-177.362 19-35.874 9.256-78.638 25.966-78.638 52.999 0 3.3.283 79.643 24 114.544zm468.762-100.854c-3.192 1.911-9.069 3.233-14.794 4.517-6.732 1.509-14.361 3.22-21.882 6.465-5.812 2.508-11 6.728-16.015 10.808-5.99 4.873-12.183 9.911-19.176 11.847-4.9 1.357-11.376.586-18.23-.229-7.417-.883-15.823-1.884-24.137-.335-7.316 1.362-13.966 4.952-20.4 8.423-6.551 3.537-12.739 6.877-18.951 7.6-5.371.631-11.753-1.052-18.511-2.832-7.529-1.983-15.313-4.035-23.57-3.563-7.728.439-14.951 3.267-21.937 6-6.778 2.654-13.18 5.16-19.163 5.16-5.886 0-12.2-2.464-18.893-5.073-6.991-2.727-14.219-5.545-21.958-5.927-8.275-.414-16.021 1.748-23.52 3.832-6.641 1.846-12.913 3.588-18.2 3.047-6.13-.628-12.291-3.833-18.812-7.226-6.479-3.371-13.178-6.856-20.521-8.065-8.35-1.376-16.722-.152-24.108.928-6.733.985-13.094 1.915-17.945.711-6.948-1.723-13.2-6.531-19.255-11.181-5.124-3.937-10.423-8.009-16.312-10.326-7.644-3.006-15.339-4.431-22.128-5.687-5.346-.989-10.826-2.008-14.108-3.584-1.339-8.717-2.256-17.23-2.882-24.78 15.76 11.54 39.76 19.779 61.284 25.333 47.476 12.251 110.464 19 177.362 19s129.886-6.748 177.362-19c21.667-5.591 45.844-13.9 61.6-25.564-.562 7.123-1.317 13.682-2.2 19.701zm-461.329 24.631c6.377 1.18 12.972 2.4 19.184 4.844 3.788 1.49 7.98 4.712 12.419 8.123 7.012 5.388 14.959 11.5 25.154 14.023 7.9 1.96 16.142.755 24.109-.409 6.838-1 13.3-1.943 19.195-.973 4.823.794 10.124 3.552 15.736 6.472 7.216 3.754 15.394 8.009 24.565 8.949 8.3.847 16.34-1.386 24.119-3.548 6.563-1.824 12.761-3.549 18.446-3.267 5.139.253 10.868 2.488 16.933 4.853 7.773 3.032 15.812 6.167 24.707 6.167 9 0 17.133-3.183 25-6.261 6.085-2.382 11.833-4.632 17.012-4.926 5.725-.328 11.973 1.32 18.587 3.061 7.9 2.081 16.068 4.232 24.446 3.251 9.256-1.083 17.456-5.51 24.691-9.416 5.592-3.019 10.874-5.87 15.725-6.773 5.917-1.1 12.426-.327 19.317.494 8.089.962 16.453 1.959 24.39-.239 10.222-2.83 18.075-9.218 25-14.854 4.362-3.548 8.483-6.9 12.259-8.53 6.143-2.652 12.7-4.122 19.041-5.543 2.707-.607 5.368-1.207 7.929-1.89-1.51 6.7-3.117 12.373-4.639 17.043-3.913 12.01-7.849 19.39-9.844 22.72a791.685 791.685 0 0 1 -218.914 30.864 791.663 791.663 0 0 1 -219.086-30.912c-6-8.975-10.279-21.542-13.33-34.883 2.539.574 5.171 1.065 7.849 1.56zm416.567 144.235a32.036 32.036 0 0 1 -32 32 7.914 7.914 0 0 0 -.8.04c-52.687 5.282-106.25 7.96-159.2 7.96s-106.515-2.678-159.2-7.96a7.914 7.914 0 0 0 -.8-.04 32.876 32.876 0 0 1 -22.627-9.373 31.788 31.788 0 0 1 -9.373-22.627v-18.689c49.719 7.284 111.108 10.689 192 10.689h.781c56.28-.035 119.777 0 191.219-10.675zm24-68.012c0 .32-.687 32-16 32v.012a8.04 8.04 0 0 0 -1.272.089c-73.656 11.861-139.273 11.911-197.207 11.911h-1.521c-84.7 0-147.638-3.749-197.974-11.792-17.649-6.369-18.026-31.983-18.026-32.22v-25.394a807.63 807.63 0 0 0 216 29.406 807.646 807.646 0 0 0 216-29.406zm-215.6-203.987q5.67 0 11.3.07a313.9 313.9 0 0 1 175.017 57.607 791.225 791.225 0 0 1 -178.79 22.322 790.662 790.662 0 0 1 -186.619-20.412c52.941-38.378 114.384-58.865 179.092-59.587zm-173.763 18.487a509.108 509.108 0 0 1 54.932-10.675 333.97 333.97 0 0 0 -80.292 46.845q-11.556-3-23.036-6.341l-4.482 15.359a807.075 807.075 0 0 0 226.235 32.36q4.041 0 8.086-.041a807.479 807.479 0 0 0 218.161-32.32l-4.482-15.359q-7.549 2.2-15.135 4.249a323.655 323.655 0 0 0 -72.138-42.253c13.859 2.351 26.889 5.081 38.877 8.175 49.132 12.684 66.637 27.694 66.637 37.513s-17.505 24.83-66.637 37.509c-46.206 11.924-107.775 18.491-173.363 18.491s-127.157-6.567-173.363-18.491c-49.131-12.679-66.637-27.689-66.637-37.509 0-9.819 17.505-24.829 66.637-37.512z"/><path d="m159.155 155.578a2.228 2.228 0 0 1 -.119.225c.076-.129 7.979-13.047 42.532-19.958l-3.138-15.689c-42.606 8.521-52.589 26.271-53.586 28.267z"/></svg>